<svg width="18" height="20" viewBox="0 0 18 20" fill="none" xmlns="http://www.w3.org/2000/svg">
<path d="M5.99878 15V16C5.99878 16.7956 6.31485 17.5587 6.87746 18.1213C7.44007 18.6839 8.20313 19 8.99878 19C9.79443 19 10.5575 18.6839 11.1201 18.1213C11.6827 17.5587 11.9988 16.7956 11.9988 16V15M6.99878 3C6.99878 2.46957 7.20949 1.96086 7.58457 1.58579C7.95964 1.21071 8.46835 1 8.99878 1C9.52921 1 10.0379 1.21071 10.413 1.58579C10.7881 1.96086 10.9988 2.46957 10.9988 3C12.1472 3.54303 13.1262 4.38833 13.8308 5.4453C14.5355 6.50227 14.9392 7.73107 14.9988 9V12C15.074 12.6217 15.2942 13.2171 15.6416 13.7381C15.989 14.2592 16.4538 14.6914 16.9988 15H0.998779C1.54372 14.6914 2.00859 14.2592 2.35597 13.7381C2.70334 13.2171 2.92352 12.6217 2.99878 12V9C3.05834 7.73107 3.46208 6.50227 4.16673 5.4453C4.87138 4.38833 5.85037 3.54303 6.99878 3Z" stroke="#5F6980" stroke-width="1.38462" stroke-linecap="round" stroke-linejoin="round"/>
</svg>
